<?xml version="1.0" encoding="utf-8" standalone="no"?>
<!DOCTYPE svg PUBLIC "-//W3C//DTD SVG 1.1//EN"
  "http://www.w3.org/Graphics/SVG/1.1/DTD/svg11.dtd">
<!-- Created with matplotlib (http://matplotlib.org/) -->
<svg height="238.84pt" version="1.1" viewBox="0 0 300.4 238.84" width="300.4pt" xmlns="http://www.w3.org/2000/svg" xmlns:xlink="http://www.w3.org/1999/xlink">
 <defs>
  <style type="text/css">
*{stroke-linecap:butt;stroke-linejoin:round;}
  </style>
 </defs>
 <g id="figure_1">
  <g id="patch_1">
   <path d="M 0 238.84 
L 300.4 238.84 
L 300.4 0 
L 0 0 
z
" style="fill:#ffffff;"/>
  </g>
  <g id="axes_1">
   <g id="patch_2">
    <path d="M 10.7 228.14 
L 289.7 228.14 
L 289.7 10.7 
L 10.7 10.7 
z
" style="fill:#ffffff;"/>
   </g>
   <g id="LineCollection_1">
    <path clip-path="url(#p6f3e3c6562)" d="M 150.2 22.133536 
L 206.177512 61.048122 
" style="fill:none;stroke:#808080;"/>
    <path clip-path="url(#p6f3e3c6562)" d="M 150.2 22.133536 
L 178.188756 61.048122 
" style="fill:none;stroke:#808080;"/>
    <path clip-path="url(#p6f3e3c6562)" d="M 150.2 22.133536 
L 150.2 61.048122 
" style="fill:none;stroke:#808080;"/>
    <path clip-path="url(#p6f3e3c6562)" d="M 150.2 22.133536 
L 122.211244 61.048122 
" style="fill:none;stroke:#808080;"/>
    <path clip-path="url(#p6f3e3c6562)" d="M 150.2 22.133536 
L 94.222488 61.048122 
" style="fill:none;stroke:#808080;"/>
    <path clip-path="url(#p6f3e3c6562)" d="M 94.222488 61.048122 
L 192.183134 99.962707 
" style="fill:none;stroke:#808080;"/>
    <path clip-path="url(#p6f3e3c6562)" d="M 94.222488 61.048122 
L 108.216866 99.962707 
" style="fill:none;stroke:#808080;"/>
    <path clip-path="url(#p6f3e3c6562)" d="M 94.222488 61.048122 
L 52.239354 99.962707 
" style="fill:none;stroke:#808080;"/>
    <path clip-path="url(#p6f3e3c6562)" d="M 94.222488 61.048122 
L 24.250599 99.962707 
" style="fill:none;stroke:#808080;"/>
    <path clip-path="url(#p6f3e3c6562)" d="M 94.222488 61.048122 
L 150.2 22.133536 
" style="fill:none;stroke:#808080;"/>
    <path clip-path="url(#p6f3e3c6562)" d="M 122.211244 61.048122 
L 220.17189 99.962707 
" style="fill:none;stroke:#808080;"/>
    <path clip-path="url(#p6f3e3c6562)" d="M 122.211244 61.048122 
L 136.205622 99.962707 
" style="fill:none;stroke:#808080;"/>
    <path clip-path="url(#p6f3e3c6562)" d="M 122.211244 61.048122 
L 80.22811 99.962707 
" style="fill:none;stroke:#808080;"/>
    <path clip-path="url(#p6f3e3c6562)" d="M 122.211244 61.048122 
L 150.2 22.133536 
" style="fill:none;stroke:#808080;"/>
    <path clip-path="url(#p6f3e3c6562)" d="M 122.211244 61.048122 
L 24.250599 99.962707 
" style="fill:none;stroke:#808080;"/>
    <path clip-path="url(#p6f3e3c6562)" d="M 24.250599 99.962707 
L 136.205622 138.877293 
" style="fill:none;stroke:#808080;"/>
    <path clip-path="url(#p6f3e3c6562)" d="M 24.250599 99.962707 
L 52.239354 138.877293 
" style="fill:none;stroke:#808080;"/>
    <path clip-path="url(#p6f3e3c6562)" d="M 24.250599 99.962707 
L 24.250599 138.877293 
" style="fill:none;stroke:#808080;"/>
    <path clip-path="url(#p6f3e3c6562)" d="M 24.250599 99.962707 
L 94.222488 61.048122 
" style="fill:none;stroke:#808080;"/>
    <path clip-path="url(#p6f3e3c6562)" d="M 24.250599 99.962707 
L 122.211244 61.048122 
" style="fill:none;stroke:#808080;"/>
    <path clip-path="url(#p6f3e3c6562)" d="M 150.2 61.048122 
L 248.160646 99.962707 
" style="fill:none;stroke:#808080;"/>
    <path clip-path="url(#p6f3e3c6562)" d="M 150.2 61.048122 
L 164.194378 99.962707 
" style="fill:none;stroke:#808080;"/>
    <path clip-path="url(#p6f3e3c6562)" d="M 150.2 61.048122 
L 150.2 22.133536 
" style="fill:none;stroke:#808080;"/>
    <path clip-path="url(#p6f3e3c6562)" d="M 150.2 61.048122 
L 80.22811 99.962707 
" style="fill:none;stroke:#808080;"/>
    <path clip-path="url(#p6f3e3c6562)" d="M 150.2 61.048122 
L 52.239354 99.962707 
" style="fill:none;stroke:#808080;"/>
    <path clip-path="url(#p6f3e3c6562)" d="M 52.239354 99.962707 
L 164.194378 138.877293 
" style="fill:none;stroke:#808080;"/>
    <path clip-path="url(#p6f3e3c6562)" d="M 52.239354 99.962707 
L 80.22811 138.877293 
" style="fill:none;stroke:#808080;"/>
    <path clip-path="url(#p6f3e3c6562)" d="M 52.239354 99.962707 
L 94.222488 61.048122 
" style="fill:none;stroke:#808080;"/>
    <path clip-path="url(#p6f3e3c6562)" d="M 52.239354 99.962707 
L 24.250599 138.877293 
" style="fill:none;stroke:#808080;"/>
    <path clip-path="url(#p6f3e3c6562)" d="M 52.239354 99.962707 
L 150.2 61.048122 
" style="fill:none;stroke:#808080;"/>
    <path clip-path="url(#p6f3e3c6562)" d="M 80.22811 99.962707 
L 192.183134 138.877293 
" style="fill:none;stroke:#808080;"/>
    <path clip-path="url(#p6f3e3c6562)" d="M 80.22811 99.962707 
L 108.216866 138.877293 
" style="fill:none;stroke:#808080;"/>
    <path clip-path="url(#p6f3e3c6562)" d="M 80.22811 99.962707 
L 122.211244 61.048122 
" style="fill:none;stroke:#808080;"/>
    <path clip-path="url(#p6f3e3c6562)" d="M 80.22811 99.962707 
L 150.2 61.048122 
" style="fill:none;stroke:#808080;"/>
    <path clip-path="url(#p6f3e3c6562)" d="M 80.22811 99.962707 
L 24.250599 138.877293 
" style="fill:none;stroke:#808080;"/>
    <path clip-path="url(#p6f3e3c6562)" d="M 24.250599 138.877293 
L 122.211244 177.791878 
" style="fill:none;stroke:#808080;"/>
    <path clip-path="url(#p6f3e3c6562)" d="M 24.250599 138.877293 
L 94.222488 177.791878 
" style="fill:none;stroke:#808080;"/>
    <path clip-path="url(#p6f3e3c6562)" d="M 24.250599 138.877293 
L 24.250599 99.962707 
" style="fill:none;stroke:#808080;"/>
    <path clip-path="url(#p6f3e3c6562)" d="M 24.250599 138.877293 
L 52.239354 99.962707 
" style="fill:none;stroke:#808080;"/>
    <path clip-path="url(#p6f3e3c6562)" d="M 24.250599 138.877293 
L 80.22811 99.962707 
" style="fill:none;stroke:#808080;"/>
    <path clip-path="url(#p6f3e3c6562)" d="M 178.188756 61.048122 
L 276.149401 99.962707 
" style="fill:none;stroke:#808080;"/>
    <path clip-path="url(#p6f3e3c6562)" d="M 178.188756 61.048122 
L 150.2 22.133536 
" style="fill:none;stroke:#808080;"/>
    <path clip-path="url(#p6f3e3c6562)" d="M 178.188756 61.048122 
L 164.194378 99.962707 
" style="fill:none;stroke:#808080;"/>
    <path clip-path="url(#p6f3e3c6562)" d="M 178.188756 61.048122 
L 136.205622 99.962707 
" style="fill:none;stroke:#808080;"/>
    <path clip-path="url(#p6f3e3c6562)" d="M 178.188756 61.048122 
L 108.216866 99.962707 
" style="fill:none;stroke:#808080;"/>
    <path clip-path="url(#p6f3e3c6562)" d="M 108.216866 99.962707 
L 220.17189 138.877293 
" style="fill:none;stroke:#808080;"/>
    <path clip-path="url(#p6f3e3c6562)" d="M 108.216866 99.962707 
L 94.222488 61.048122 
" style="fill:none;stroke:#808080;"/>
    <path clip-path="url(#p6f3e3c6562)" d="M 108.216866 99.962707 
L 80.22811 138.877293 
" style="fill:none;stroke:#808080;"/>
    <path clip-path="url(#p6f3e3c6562)" d="M 108.216866 99.962707 
L 52.239354 138.877293 
" style="fill:none;stroke:#808080;"/>
    <path clip-path="url(#p6f3e3c6562)" d="M 108.216866 99.962707 
L 178.188756 61.048122 
" style="fill:none;stroke:#808080;"/>
    <path clip-path="url(#p6f3e3c6562)" d="M 136.205622 99.962707 
L 248.160646 138.877293 
" style="fill:none;stroke:#808080;"/>
    <path clip-path="url(#p6f3e3c6562)" d="M 136.205622 99.962707 
L 122.211244 61.048122 
" style="fill:none;stroke:#808080;"/>
    <path clip-path="url(#p6f3e3c6562)" d="M 136.205622 99.962707 
L 108.216866 138.877293 
" style="fill:none;stroke:#808080;"/>
    <path clip-path="url(#p6f3e3c6562)" d="M 136.205622 99.962707 
L 178.188756 61.048122 
" style="fill:none;stroke:#808080;"/>
    <path clip-path="url(#p6f3e3c6562)" d="M 136.205622 99.962707 
L 52.239354 138.877293 
" style="fill:none;stroke:#808080;"/>
    <path clip-path="url(#p6f3e3c6562)" d="M 52.239354 138.877293 
L 150.2 177.791878 
" style="fill:none;stroke:#808080;"/>
    <path clip-path="url(#p6f3e3c6562)" d="M 52.239354 138.877293 
L 24.250599 99.962707 
" style="fill:none;stroke:#808080;"/>
    <path clip-path="url(#p6f3e3c6562)" d="M 52.239354 138.877293 
L 94.222488 177.791878 
" style="fill:none;stroke:#808080;"/>
    <path clip-path="url(#p6f3e3c6562)" d="M 52.239354 138.877293 
L 108.216866 99.962707 
" style="fill:none;stroke:#808080;"/>
    <path clip-path="url(#p6f3e3c6562)" d="M 52.239354 138.877293 
L 136.205622 99.962707 
" style="fill:none;stroke:#808080;"/>
    <path clip-path="url(#p6f3e3c6562)" d="M 164.194378 99.962707 
L 276.149401 138.877293 
" style="fill:none;stroke:#808080;"/>
    <path clip-path="url(#p6f3e3c6562)" d="M 164.194378 99.962707 
L 150.2 61.048122 
" style="fill:none;stroke:#808080;"/>
    <path clip-path="url(#p6f3e3c6562)" d="M 164.194378 99.962707 
L 178.188756 61.048122 
" style="fill:none;stroke:#808080;"/>
    <path clip-path="url(#p6f3e3c6562)" d="M 164.194378 99.962707 
L 108.216866 138.877293 
" style="fill:none;stroke:#808080;"/>
    <path clip-path="url(#p6f3e3c6562)" d="M 164.194378 99.962707 
L 80.22811 138.877293 
" style="fill:none;stroke:#808080;"/>
    <path clip-path="url(#p6f3e3c6562)" d="M 80.22811 138.877293 
L 178.188756 177.791878 
" style="fill:none;stroke:#808080;"/>
    <path clip-path="url(#p6f3e3c6562)" d="M 80.22811 138.877293 
L 52.239354 99.962707 
" style="fill:none;stroke:#808080;"/>
    <path clip-path="url(#p6f3e3c6562)" d="M 80.22811 138.877293 
L 108.216866 99.962707 
" style="fill:none;stroke:#808080;"/>
    <path clip-path="url(#p6f3e3c6562)" d="M 80.22811 138.877293 
L 94.222488 177.791878 
" style="fill:none;stroke:#808080;"/>
    <path clip-path="url(#p6f3e3c6562)" d="M 80.22811 138.877293 
L 164.194378 99.962707 
" style="fill:none;stroke:#808080;"/>
    <path clip-path="url(#p6f3e3c6562)" d="M 108.216866 138.877293 
L 206.177512 177.791878 
" style="fill:none;stroke:#808080;"/>
    <path clip-path="url(#p6f3e3c6562)" d="M 108.216866 138.877293 
L 80.22811 99.962707 
" style="fill:none;stroke:#808080;"/>
    <path clip-path="url(#p6f3e3c6562)" d="M 108.216866 138.877293 
L 136.205622 99.962707 
" style="fill:none;stroke:#808080;"/>
    <path clip-path="url(#p6f3e3c6562)" d="M 108.216866 138.877293 
L 164.194378 99.962707 
" style="fill:none;stroke:#808080;"/>
    <path clip-path="url(#p6f3e3c6562)" d="M 108.216866 138.877293 
L 94.222488 177.791878 
" style="fill:none;stroke:#808080;"/>
    <path clip-path="url(#p6f3e3c6562)" d="M 94.222488 177.791878 
L 150.2 216.706464 
" style="fill:none;stroke:#808080;"/>
    <path clip-path="url(#p6f3e3c6562)" d="M 94.222488 177.791878 
L 24.250599 138.877293 
" style="fill:none;stroke:#808080;"/>
    <path clip-path="url(#p6f3e3c6562)" d="M 94.222488 177.791878 
L 52.239354 138.877293 
" style="fill:none;stroke:#808080;"/>
    <path clip-path="url(#p6f3e3c6562)" d="M 94.222488 177.791878 
L 80.22811 138.877293 
" style="fill:none;stroke:#808080;"/>
    <path clip-path="url(#p6f3e3c6562)" d="M 94.222488 177.791878 
L 108.216866 138.877293 
" style="fill:none;stroke:#808080;"/>
    <path clip-path="url(#p6f3e3c6562)" d="M 206.177512 61.048122 
L 150.2 22.133536 
" style="fill:none;stroke:#808080;"/>
    <path clip-path="url(#p6f3e3c6562)" d="M 206.177512 61.048122 
L 276.149401 99.962707 
" style="fill:none;stroke:#808080;"/>
    <path clip-path="url(#p6f3e3c6562)" d="M 206.177512 61.048122 
L 248.160646 99.962707 
" style="fill:none;stroke:#808080;"/>
    <path clip-path="url(#p6f3e3c6562)" d="M 206.177512 61.048122 
L 220.17189 99.962707 
" style="fill:none;stroke:#808080;"/>
    <path clip-path="url(#p6f3e3c6562)" d="M 206.177512 61.048122 
L 192.183134 99.962707 
" style="fill:none;stroke:#808080;"/>
    <path clip-path="url(#p6f3e3c6562)" d="M 192.183134 99.962707 
L 94.222488 61.048122 
" style="fill:none;stroke:#808080;"/>
    <path clip-path="url(#p6f3e3c6562)" d="M 192.183134 99.962707 
L 220.17189 138.877293 
" style="fill:none;stroke:#808080;"/>
    <path clip-path="url(#p6f3e3c6562)" d="M 192.183134 99.962707 
L 164.194378 138.877293 
" style="fill:none;stroke:#808080;"/>
    <path clip-path="url(#p6f3e3c6562)" d="M 192.183134 99.962707 
L 136.205622 138.877293 
" style="fill:none;stroke:#808080;"/>
    <path clip-path="url(#p6f3e3c6562)" d="M 192.183134 99.962707 
L 206.177512 61.048122 
" style="fill:none;stroke:#808080;"/>
    <path clip-path="url(#p6f3e3c6562)" d="M 220.17189 99.962707 
L 122.211244 61.048122 
" style="fill:none;stroke:#808080;"/>
    <path clip-path="url(#p6f3e3c6562)" d="M 220.17189 99.962707 
L 248.160646 138.877293 
" style="fill:none;stroke:#808080;"/>
    <path clip-path="url(#p6f3e3c6562)" d="M 220.17189 99.962707 
L 192.183134 138.877293 
" style="fill:none;stroke:#808080;"/>
    <path clip-path="url(#p6f3e3c6562)" d="M 220.17189 99.962707 
L 206.177512 61.048122 
" style="fill:none;stroke:#808080;"/>
    <path clip-path="url(#p6f3e3c6562)" d="M 220.17189 99.962707 
L 136.205622 138.877293 
" style="fill:none;stroke:#808080;"/>
    <path clip-path="url(#p6f3e3c6562)" d="M 136.205622 138.877293 
L 24.250599 99.962707 
" style="fill:none;stroke:#808080;"/>
    <path clip-path="url(#p6f3e3c6562)" d="M 136.205622 138.877293 
L 150.2 177.791878 
" style="fill:none;stroke:#808080;"/>
    <path clip-path="url(#p6f3e3c6562)" d="M 136.205622 138.877293 
L 122.211244 177.791878 
" style="fill:none;stroke:#808080;"/>
    <path clip-path="url(#p6f3e3c6562)" d="M 136.205622 138.877293 
L 192.183134 99.962707 
" style="fill:none;stroke:#808080;"/>
    <path clip-path="url(#p6f3e3c6562)" d="M 136.205622 138.877293 
L 220.17189 99.962707 
" style="fill:none;stroke:#808080;"/>
    <path clip-path="url(#p6f3e3c6562)" d="M 248.160646 99.962707 
L 150.2 61.048122 
" style="fill:none;stroke:#808080;"/>
    <path clip-path="url(#p6f3e3c6562)" d="M 248.160646 99.962707 
L 276.149401 138.877293 
" style="fill:none;stroke:#808080;"/>
    <path clip-path="url(#p6f3e3c6562)" d="M 248.160646 99.962707 
L 206.177512 61.048122 
" style="fill:none;stroke:#808080;"/>
    <path clip-path="url(#p6f3e3c6562)" d="M 248.160646 99.962707 
L 192.183134 138.877293 
" style="fill:none;stroke:#808080;"/>
    <path clip-path="url(#p6f3e3c6562)" d="M 248.160646 99.962707 
L 164.194378 138.877293 
" style="fill:none;stroke:#808080;"/>
    <path clip-path="url(#p6f3e3c6562)" d="M 164.194378 138.877293 
L 52.239354 99.962707 
" style="fill:none;stroke:#808080;"/>
    <path clip-path="url(#p6f3e3c6562)" d="M 164.194378 138.877293 
L 178.188756 177.791878 
" style="fill:none;stroke:#808080;"/>
    <path clip-path="url(#p6f3e3c6562)" d="M 164.194378 138.877293 
L 192.183134 99.962707 
" style="fill:none;stroke:#808080;"/>
    <path clip-path="url(#p6f3e3c6562)" d="M 164.194378 138.877293 
L 122.211244 177.791878 
" style="fill:none;stroke:#808080;"/>
    <path clip-path="url(#p6f3e3c6562)" d="M 164.194378 138.877293 
L 248.160646 99.962707 
" style="fill:none;stroke:#808080;"/>
    <path clip-path="url(#p6f3e3c6562)" d="M 192.183134 138.877293 
L 80.22811 99.962707 
" style="fill:none;stroke:#808080;"/>
    <path clip-path="url(#p6f3e3c6562)" d="M 192.183134 138.877293 
L 206.177512 177.791878 
" style="fill:none;stroke:#808080;"/>
    <path clip-path="url(#p6f3e3c6562)" d="M 192.183134 138.877293 
L 220.17189 99.962707 
" style="fill:none;stroke:#808080;"/>
    <path clip-path="url(#p6f3e3c6562)" d="M 192.183134 138.877293 
L 248.160646 99.962707 
" style="fill:none;stroke:#808080;"/>
    <path clip-path="url(#p6f3e3c6562)" d="M 192.183134 138.877293 
L 122.211244 177.791878 
" style="fill:none;stroke:#808080;"/>
    <path clip-path="url(#p6f3e3c6562)" d="M 122.211244 177.791878 
L 24.250599 138.877293 
" style="fill:none;stroke:#808080;"/>
    <path clip-path="url(#p6f3e3c6562)" d="M 122.211244 177.791878 
L 150.2 216.706464 
" style="fill:none;stroke:#808080;"/>
    <path clip-path="url(#p6f3e3c6562)" d="M 122.211244 177.791878 
L 136.205622 138.877293 
" style="fill:none;stroke:#808080;"/>
    <path clip-path="url(#p6f3e3c6562)" d="M 122.211244 177.791878 
L 164.194378 138.877293 
" style="fill:none;stroke:#808080;"/>
    <path clip-path="url(#p6f3e3c6562)" d="M 122.211244 177.791878 
L 192.183134 138.877293 
" style="fill:none;stroke:#808080;"/>
    <path clip-path="url(#p6f3e3c6562)" d="M 276.149401 99.962707 
L 178.188756 61.048122 
" style="fill:none;stroke:#808080;"/>
    <path clip-path="url(#p6f3e3c6562)" d="M 276.149401 99.962707 
L 206.177512 61.048122 
" style="fill:none;stroke:#808080;"/>
    <path clip-path="url(#p6f3e3c6562)" d="M 276.149401 99.962707 
L 276.149401 138.877293 
" style="fill:none;stroke:#808080;"/>
    <path clip-path="url(#p6f3e3c6562)" d="M 276.149401 99.962707 
L 248.160646 138.877293 
" style="fill:none;stroke:#808080;"/>
    <path clip-path="url(#p6f3e3c6562)" d="M 276.149401 99.962707 
L 220.17189 138.877293 
" style="fill:none;stroke:#808080;"/>
    <path clip-path="url(#p6f3e3c6562)" d="M 220.17189 138.877293 
L 108.216866 99.962707 
" style="fill:none;stroke:#808080;"/>
    <path clip-path="url(#p6f3e3c6562)" d="M 220.17189 138.877293 
L 192.183134 99.962707 
" style="fill:none;stroke:#808080;"/>
    <path clip-path="url(#p6f3e3c6562)" d="M 220.17189 138.877293 
L 178.188756 177.791878 
" style="fill:none;stroke:#808080;"/>
    <path clip-path="url(#p6f3e3c6562)" d="M 220.17189 138.877293 
L 150.2 177.791878 
" style="fill:none;stroke:#808080;"/>
    <path clip-path="url(#p6f3e3c6562)" d="M 220.17189 138.877293 
L 276.149401 99.962707 
" style="fill:none;stroke:#808080;"/>
    <path clip-path="url(#p6f3e3c6562)" d="M 248.160646 138.877293 
L 136.205622 99.962707 
" style="fill:none;stroke:#808080;"/>
    <path clip-path="url(#p6f3e3c6562)" d="M 248.160646 138.877293 
L 220.17189 99.962707 
" style="fill:none;stroke:#808080;"/>
    <path clip-path="url(#p6f3e3c6562)" d="M 248.160646 138.877293 
L 206.177512 177.791878 
" style="fill:none;stroke:#808080;"/>
    <path clip-path="url(#p6f3e3c6562)" d="M 248.160646 138.877293 
L 276.149401 99.962707 
" style="fill:none;stroke:#808080;"/>
    <path clip-path="url(#p6f3e3c6562)" d="M 248.160646 138.877293 
L 150.2 177.791878 
" style="fill:none;stroke:#808080;"/>
    <path clip-path="url(#p6f3e3c6562)" d="M 150.2 177.791878 
L 52.239354 138.877293 
" style="fill:none;stroke:#808080;"/>
    <path clip-path="url(#p6f3e3c6562)" d="M 150.2 177.791878 
L 136.205622 138.877293 
" style="fill:none;stroke:#808080;"/>
    <path clip-path="url(#p6f3e3c6562)" d="M 150.2 177.791878 
L 150.2 216.706464 
" style="fill:none;stroke:#808080;"/>
    <path clip-path="url(#p6f3e3c6562)" d="M 150.2 177.791878 
L 220.17189 138.877293 
" style="fill:none;stroke:#808080;"/>
    <path clip-path="url(#p6f3e3c6562)" d="M 150.2 177.791878 
L 248.160646 138.877293 
" style="fill:none;stroke:#808080;"/>
    <path clip-path="url(#p6f3e3c6562)" d="M 276.149401 138.877293 
L 164.194378 99.962707 
" style="fill:none;stroke:#808080;"/>
    <path clip-path="url(#p6f3e3c6562)" d="M 276.149401 138.877293 
L 248.160646 99.962707 
" style="fill:none;stroke:#808080;"/>
    <path clip-path="url(#p6f3e3c6562)" d="M 276.149401 138.877293 
L 276.149401 99.962707 
" style="fill:none;stroke:#808080;"/>
    <path clip-path="url(#p6f3e3c6562)" d="M 276.149401 138.877293 
L 206.177512 177.791878 
" style="fill:none;stroke:#808080;"/>
    <path clip-path="url(#p6f3e3c6562)" d="M 276.149401 138.877293 
L 178.188756 177.791878 
" style="fill:none;stroke:#808080;"/>
    <path clip-path="url(#p6f3e3c6562)" d="M 178.188756 177.791878 
L 80.22811 138.877293 
" style="fill:none;stroke:#808080;"/>
    <path clip-path="url(#p6f3e3c6562)" d="M 178.188756 177.791878 
L 164.194378 138.877293 
" style="fill:none;stroke:#808080;"/>
    <path clip-path="url(#p6f3e3c6562)" d="M 178.188756 177.791878 
L 220.17189 138.877293 
" style="fill:none;stroke:#808080;"/>
    <path clip-path="url(#p6f3e3c6562)" d="M 178.188756 177.791878 
L 150.2 216.706464 
" style="fill:none;stroke:#808080;"/>
    <path clip-path="url(#p6f3e3c6562)" d="M 178.188756 177.791878 
L 276.149401 138.877293 
" style="fill:none;stroke:#808080;"/>
    <path clip-path="url(#p6f3e3c6562)" d="M 206.177512 177.791878 
L 108.216866 138.877293 
" style="fill:none;stroke:#808080;"/>
    <path clip-path="url(#p6f3e3c6562)" d="M 206.177512 177.791878 
L 192.183134 138.877293 
" style="fill:none;stroke:#808080;"/>
    <path clip-path="url(#p6f3e3c6562)" d="M 206.177512 177.791878 
L 248.160646 138.877293 
" style="fill:none;stroke:#808080;"/>
    <path clip-path="url(#p6f3e3c6562)" d="M 206.177512 177.791878 
L 276.149401 138.877293 
" style="fill:none;stroke:#808080;"/>
    <path clip-path="url(#p6f3e3c6562)" d="M 206.177512 177.791878 
L 150.2 216.706464 
" style="fill:none;stroke:#808080;"/>
    <path clip-path="url(#p6f3e3c6562)" d="M 150.2 216.706464 
L 94.222488 177.791878 
" style="fill:none;stroke:#808080;"/>
    <path clip-path="url(#p6f3e3c6562)" d="M 150.2 216.706464 
L 122.211244 177.791878 
" style="fill:none;stroke:#808080;"/>
    <path clip-path="url(#p6f3e3c6562)" d="M 150.2 216.706464 
L 150.2 177.791878 
" style="fill:none;stroke:#808080;"/>
    <path clip-path="url(#p6f3e3c6562)" d="M 150.2 216.706464 
L 178.188756 177.791878 
" style="fill:none;stroke:#808080;"/>
    <path clip-path="url(#p6f3e3c6562)" d="M 150.2 216.706464 
L 206.177512 177.791878 
" style="fill:none;stroke:#808080;"/>
   </g>
   <g id="matplotlib.axis_1"/>
   <g id="matplotlib.axis_2"/>
   <g id="PathCollection_1">
    <defs>
     <path d="M 0 8.660254 
C 2.296726 8.660254 4.499694 7.747755 6.123724 6.123724 
C 7.747755 4.499694 8.660254 2.296726 8.660254 0 
C 8.660254 -2.296726 7.747755 -4.499694 6.123724 -6.123724 
C 4.499694 -7.747755 2.296726 -8.660254 0 -8.660254 
C -2.296726 -8.660254 -4.499694 -7.747755 -6.123724 -6.123724 
C -7.747755 -4.499694 -8.660254 -2.296726 -8.660254 0 
C -8.660254 2.296726 -7.747755 4.499694 -6.123724 6.123724 
C -4.499694 7.747755 -2.296726 8.660254 0 8.660254 
z
" id="C0_0_09831e2b23"/>
    </defs>
    <g clip-path="url(#p6f3e3c6562)">
     <use style="fill:#c43e7f;stroke:#c43e7f;" x="150.2" xlink:href="#C0_0_09831e2b23" y="22.133536"/>
    </g>
    <g clip-path="url(#p6f3e3c6562)">
     <use style="fill:#f0f921;stroke:#f0f921;" x="94.222488" xlink:href="#C0_0_09831e2b23" y="61.048122"/>
    </g>
    <g clip-path="url(#p6f3e3c6562)">
     <use style="fill:#ed7953;stroke:#ed7953;" x="122.211244" xlink:href="#C0_0_09831e2b23" y="61.048122"/>
    </g>
    <g clip-path="url(#p6f3e3c6562)">
     <use style="fill:#feb82c;stroke:#feb82c;" x="24.250599" xlink:href="#C0_0_09831e2b23" y="99.962707"/>
    </g>
    <g clip-path="url(#p6f3e3c6562)">
     <use style="fill:#c43e7f;stroke:#c43e7f;" x="150.2" xlink:href="#C0_0_09831e2b23" y="61.048122"/>
    </g>
    <g clip-path="url(#p6f3e3c6562)">
     <use style="fill:#f0f921;stroke:#f0f921;" x="52.239354" xlink:href="#C0_0_09831e2b23" y="99.962707"/>
    </g>
    <g clip-path="url(#p6f3e3c6562)">
     <use style="fill:#ed7953;stroke:#ed7953;" x="80.22811" xlink:href="#C0_0_09831e2b23" y="99.962707"/>
    </g>
    <g clip-path="url(#p6f3e3c6562)">
     <use style="fill:#feb82c;stroke:#feb82c;" x="24.250599" xlink:href="#C0_0_09831e2b23" y="138.877293"/>
    </g>
    <g clip-path="url(#p6f3e3c6562)">
     <use style="fill:#fca537;stroke:#fca537;" x="178.188756" xlink:href="#C0_0_09831e2b23" y="61.048122"/>
    </g>
    <g clip-path="url(#p6f3e3c6562)">
     <use style="fill:#e66c5c;stroke:#e66c5c;" x="108.216866" xlink:href="#C0_0_09831e2b23" y="99.962707"/>
    </g>
    <g clip-path="url(#p6f3e3c6562)">
     <use style="fill:#d04d73;stroke:#d04d73;" x="136.205622" xlink:href="#C0_0_09831e2b23" y="99.962707"/>
    </g>
    <g clip-path="url(#p6f3e3c6562)">
     <use style="fill:#b02991;stroke:#b02991;" x="52.239354" xlink:href="#C0_0_09831e2b23" y="138.877293"/>
    </g>
    <g clip-path="url(#p6f3e3c6562)">
     <use style="fill:#fca537;stroke:#fca537;" x="164.194378" xlink:href="#C0_0_09831e2b23" y="99.962707"/>
    </g>
    <g clip-path="url(#p6f3e3c6562)">
     <use style="fill:#e66c5c;stroke:#e66c5c;" x="80.22811" xlink:href="#C0_0_09831e2b23" y="138.877293"/>
    </g>
    <g clip-path="url(#p6f3e3c6562)">
     <use style="fill:#d04d73;stroke:#d04d73;" x="108.216866" xlink:href="#C0_0_09831e2b23" y="138.877293"/>
    </g>
    <g clip-path="url(#p6f3e3c6562)">
     <use style="fill:#b02991;stroke:#b02991;" x="94.222488" xlink:href="#C0_0_09831e2b23" y="177.791878"/>
    </g>
    <g clip-path="url(#p6f3e3c6562)">
     <use style="fill:#e26561;stroke:#e26561;" x="206.177512" xlink:href="#C0_0_09831e2b23" y="61.048122"/>
    </g>
    <g clip-path="url(#p6f3e3c6562)">
     <use style="fill:#8808a6;stroke:#8808a6;" x="192.183134" xlink:href="#C0_0_09831e2b23" y="99.962707"/>
    </g>
    <g clip-path="url(#p6f3e3c6562)">
     <use style="fill:#7701a8;stroke:#7701a8;" x="220.17189" xlink:href="#C0_0_09831e2b23" y="99.962707"/>
    </g>
    <g clip-path="url(#p6f3e3c6562)">
     <use style="fill:#38049a;stroke:#38049a;" x="136.205622" xlink:href="#C0_0_09831e2b23" y="138.877293"/>
    </g>
    <g clip-path="url(#p6f3e3c6562)">
     <use style="fill:#e26561;stroke:#e26561;" x="248.160646" xlink:href="#C0_0_09831e2b23" y="99.962707"/>
    </g>
    <g clip-path="url(#p6f3e3c6562)">
     <use style="fill:#8808a6;stroke:#8808a6;" x="164.194378" xlink:href="#C0_0_09831e2b23" y="138.877293"/>
    </g>
    <g clip-path="url(#p6f3e3c6562)">
     <use style="fill:#7701a8;stroke:#7701a8;" x="192.183134" xlink:href="#C0_0_09831e2b23" y="138.877293"/>
    </g>
    <g clip-path="url(#p6f3e3c6562)">
     <use style="fill:#38049a;stroke:#38049a;" x="122.211244" xlink:href="#C0_0_09831e2b23" y="177.791878"/>
    </g>
    <g clip-path="url(#p6f3e3c6562)">
     <use style="fill:#5102a3;stroke:#5102a3;" x="276.149401" xlink:href="#C0_0_09831e2b23" y="99.962707"/>
    </g>
    <g clip-path="url(#p6f3e3c6562)">
     <use style="fill:#3c049b;stroke:#3c049b;" x="220.17189" xlink:href="#C0_0_09831e2b23" y="138.877293"/>
    </g>
    <g clip-path="url(#p6f3e3c6562)">
     <use style="fill:#19068c;stroke:#19068c;" x="248.160646" xlink:href="#C0_0_09831e2b23" y="138.877293"/>
    </g>
    <g clip-path="url(#p6f3e3c6562)">
     <use style="fill:#0d0887;stroke:#0d0887;" x="150.2" xlink:href="#C0_0_09831e2b23" y="177.791878"/>
    </g>
    <g clip-path="url(#p6f3e3c6562)">
     <use style="fill:#5102a3;stroke:#5102a3;" x="276.149401" xlink:href="#C0_0_09831e2b23" y="138.877293"/>
    </g>
    <g clip-path="url(#p6f3e3c6562)">
     <use style="fill:#3c049b;stroke:#3c049b;" x="178.188756" xlink:href="#C0_0_09831e2b23" y="177.791878"/>
    </g>
    <g clip-path="url(#p6f3e3c6562)">
     <use style="fill:#19068c;stroke:#19068c;" x="206.177512" xlink:href="#C0_0_09831e2b23" y="177.791878"/>
    </g>
    <g clip-path="url(#p6f3e3c6562)">
     <use style="fill:#0d0887;stroke:#0d0887;" x="150.2" xlink:href="#C0_0_09831e2b23" y="216.706464"/>
    </g>
   </g>
  </g>
 </g>
 <defs>
  <clipPath id="p6f3e3c6562">
   <rect height="217.44" width="279" x="10.7" y="10.7"/>
  </clipPath>
 </defs>
</svg>
