<?xml version="1.0" encoding="utf-8" standalone="no"?>
<!DOCTYPE svg PUBLIC "-//W3C//DTD SVG 1.1//EN"
  "http://www.w3.org/Graphics/SVG/1.1/DTD/svg11.dtd">
<!-- Created with matplotlib (http://matplotlib.org/) -->
<svg height="115.424219pt" version="1.1" viewBox="0 0 136.825 115.424219" width="136.825pt" xmlns="http://www.w3.org/2000/svg" xmlns:xlink="http://www.w3.org/1999/xlink">
 <defs>
  <style type="text/css">
*{stroke-linecap:butt;stroke-linejoin:round;}
  </style>
 </defs>
 <g id="figure_1">
  <g id="patch_1">
   <path d="M 0 115.424219 
L 136.825 115.424219 
L 136.825 0 
L 0 0 
z
" style="fill:#ffffff;"/>
  </g>
  <g id="axes_1">
   <g id="patch_2">
    <path d="M 28.1 92.078906 
L 126.125 92.078906 
L 126.125 10.778906 
L 28.1 10.778906 
z
" style="fill:#ffffff;"/>
   </g>
   <g id="matplotlib.axis_1">
    <g id="xtick_1">
     <g id="line2d_1">
      <defs>
       <path d="M 0 0 
L 0 3.5 
" id="m0759c8c58a" style="stroke:#000000;stroke-width:0.8;"/>
      </defs>
      <g>
       <use style="stroke:#000000;stroke-width:0.8;" x="32.555682" xlink:href="#m0759c8c58a" y="92.078906"/>
      </g>
     </g>
     <g id="text_1">
      <text style="font-family:Arial;font-size:10px;font-style:normal;font-weight:normal;text-anchor:middle;" transform="rotate(-0, 32.555682, 106.236719)" x="32.555682" y="106.236719">0</text>
     </g>
    </g>
    <g id="xtick_2">
     <g id="line2d_2">
      <g>
       <use style="stroke:#000000;stroke-width:0.8;" x="69.077664" xlink:href="#m0759c8c58a" y="92.078906"/>
      </g>
     </g>
     <g id="text_2">
      <text style="font-family:Arial;font-size:10px;font-style:normal;font-weight:normal;text-anchor:middle;" transform="rotate(-0, 69.077664, 106.236719)" x="69.077664" y="106.236719">50</text>
     </g>
    </g>
    <g id="xtick_3">
     <g id="line2d_3">
      <g>
       <use style="stroke:#000000;stroke-width:0.8;" x="105.599646" xlink:href="#m0759c8c58a" y="92.078906"/>
      </g>
     </g>
     <g id="text_3">
      <text style="font-family:Arial;font-size:10px;font-style:normal;font-weight:normal;text-anchor:middle;" transform="rotate(-0, 105.599646, 106.236719)" x="105.599646" y="106.236719">100</text>
     </g>
    </g>
   </g>
   <g id="matplotlib.axis_2">
    <g id="ytick_1">
     <g id="line2d_4">
      <defs>
       <path d="M 0 0 
L -3.5 0 
" id="m2b17024b4e" style="stroke:#000000;stroke-width:0.8;"/>
      </defs>
      <g>
       <use style="stroke:#000000;stroke-width:0.8;" x="28.1" xlink:href="#m2b17024b4e" y="92.043054"/>
      </g>
     </g>
     <g id="text_4">
      <text style="font-family:Arial;font-size:10px;font-style:normal;font-weight:normal;text-anchor:end;" transform="rotate(-0, 21.1, 95.621961)" x="21.1" y="95.621961">0.0</text>
     </g>
    </g>
    <g id="ytick_2">
     <g id="line2d_5">
      <g>
       <use style="stroke:#000000;stroke-width:0.8;" x="28.1" xlink:href="#m2b17024b4e" y="51.41098"/>
      </g>
     </g>
     <g id="text_5">
      <text style="font-family:Arial;font-size:10px;font-style:normal;font-weight:normal;text-anchor:end;" transform="rotate(-0, 21.1, 54.989887)" x="21.1" y="54.989887">0.5</text>
     </g>
    </g>
    <g id="ytick_3">
     <g id="line2d_6">
      <g>
       <use style="stroke:#000000;stroke-width:0.8;" x="28.1" xlink:href="#m2b17024b4e" y="10.778906"/>
      </g>
     </g>
     <g id="text_6">
      <text style="font-family:Arial;font-size:10px;font-style:normal;font-weight:normal;text-anchor:end;" transform="rotate(-0, 21.1, 14.357813)" x="21.1" y="14.357813">1.0</text>
     </g>
    </g>
   </g>
   <g id="LineCollection_1">
    <path clip-path="url(#p656b4ff37a)" d="M 32.555682 18.905321 
L 105.599646 18.905321 
" style="fill:none;stroke:#1f77b4;stroke-dasharray:1.85,0.8;stroke-dashoffset:0;stroke-width:0.5;"/>
   </g>
   <g id="LineCollection_2">
    <path clip-path="url(#p656b4ff37a)" d="M 32.555682 27.031736 
L 105.599646 27.031736 
" style="fill:none;stroke:#ff7f0e;stroke-dasharray:1.85,0.8;stroke-dashoffset:0;stroke-width:0.5;"/>
   </g>
   <g id="LineCollection_3">
    <path clip-path="url(#p656b4ff37a)" d="M 32.555682 35.158151 
L 105.599646 35.158151 
" style="fill:none;stroke:#2ca02c;stroke-dasharray:1.85,0.8;stroke-dashoffset:0;stroke-width:0.5;"/>
   </g>
   <g id="LineCollection_4">
    <path clip-path="url(#p656b4ff37a)" d="M 32.555682 43.284565 
L 105.599646 43.284565 
" style="fill:none;stroke:#d62728;stroke-dasharray:1.85,0.8;stroke-dashoffset:0;stroke-width:0.5;"/>
   </g>
   <g id="LineCollection_5">
    <path clip-path="url(#p656b4ff37a)" d="M 32.555682 51.41098 
L 105.599646 51.41098 
" style="fill:none;stroke:#9467bd;stroke-dasharray:1.85,0.8;stroke-dashoffset:0;stroke-width:0.5;"/>
   </g>
   <g id="LineCollection_6">
    <path clip-path="url(#p656b4ff37a)" d="M 32.555682 59.537395 
L 105.599646 59.537395 
" style="fill:none;stroke:#8c564b;stroke-dasharray:1.85,0.8;stroke-dashoffset:0;stroke-width:0.5;"/>
   </g>
   <g id="line2d_7">
    <path clip-path="url(#p656b4ff37a)" d="M 33.286121 78.938474 
L 34.016561 82.225928 
L 34.747001 77.955037 
L 36.20788 56.713027 
L 36.93832 41.46668 
L 37.668759 32.833014 
L 38.399199 28.303028 
L 39.129639 26.129813 
L 39.860078 24.790161 
L 40.590518 24.116629 
L 41.320958 23.180821 
L 42.051397 22.732257 
L 42.781837 22.469649 
L 44.242716 21.706786 
L 44.973156 21.60357 
L 45.703595 21.31738 
L 47.164475 21.177827 
L 50.086233 20.754991 
L 50.816673 20.887423 
L 52.277552 20.340418 
L 53.007992 20.665904 
L 55.199311 20.245091 
L 56.66019 20.214523 
L 63.964586 19.874837 
L 64.695026 19.956179 
L 65.425466 19.839861 
L 67.616785 19.840763 
L 71.999423 19.602653 
L 72.729862 19.816981 
L 73.460302 19.847834 
L 74.190741 19.673849 
L 74.921181 19.750471 
L 75.651621 19.620614 
L 76.38206 19.786566 
L 77.1125 19.463902 
L 77.84294 19.581906 
L 79.303819 19.556912 
L 84.416896 19.486 
L 86.608215 19.450405 
L 115.095361 19.029109 
L 118.74756 18.96289 
L 120.208439 19.023295 
L 121.669318 18.911401 
L 121.669318 18.911401 
" style="fill:none;stroke:#1f77b4;stroke-linecap:square;stroke-width:2;"/>
   </g>
   <g id="line2d_8">
    <path clip-path="url(#p656b4ff37a)" d="M 33.286121 81.277045 
L 34.016561 82.634196 
L 34.747001 80.716444 
L 35.47744 75.403854 
L 36.20788 67.625957 
L 36.93832 55.132287 
L 38.399199 42.5393 
L 39.129639 39.787773 
L 39.860078 37.632518 
L 41.320958 35.042718 
L 42.051397 34.232584 
L 43.512276 33.38345 
L 44.242716 32.804887 
L 45.703595 32.086545 
L 47.164475 31.444245 
L 47.894914 31.443622 
L 50.086233 30.876705 
L 51.547113 30.726117 
L 52.277552 30.54728 
L 53.007992 30.700825 
L 53.738431 30.639621 
L 54.468871 29.886312 
L 57.39063 29.44953 
L 58.121069 29.501223 
L 58.851509 29.302105 
L 60.312388 29.429034 
L 61.042828 29.255574 
L 67.616785 28.800805 
L 68.347224 28.921724 
L 69.077664 28.853113 
L 69.808104 28.45847 
L 70.538543 28.674916 
L 72.729862 28.649429 
L 74.921181 28.800992 
L 75.651621 28.312767 
L 76.38206 28.517338 
L 77.84294 28.483721 
L 79.303819 28.440861 
L 82.956017 28.234247 
L 84.416896 28.287555 
L 85.877776 28.16481 
L 87.338655 28.310989 
L 89.529974 28.097856 
L 90.990853 28.144837 
L 92.451732 28.061631 
L 93.912612 27.972179 
L 95.373491 27.997062 
L 102.677887 27.878584 
L 104.869206 27.758036 
L 109.251844 27.748135 
L 109.982284 27.84201 
L 110.712724 27.785983 
L 111.443163 27.856482 
L 112.904042 27.805221 
L 114.364922 27.681191 
L 116.556241 27.525679 
L 120.208439 27.429668 
L 120.938879 27.341608 
L 121.669318 27.422815 
L 121.669318 27.422815 
" style="fill:none;stroke:#ff7f0e;stroke-linecap:square;stroke-width:2;"/>
   </g>
   <g id="line2d_9">
    <path clip-path="url(#p656b4ff37a)" d="M 33.286121 83.507413 
L 34.016561 85.126912 
L 34.747001 83.210234 
L 35.47744 79.021851 
L 36.20788 73.916895 
L 36.93832 64.960879 
L 38.399199 54.578926 
L 39.860078 49.082772 
L 40.590518 48.311814 
L 41.320958 46.322442 
L 42.051397 45.405185 
L 42.781837 44.765833 
L 43.512276 43.874885 
L 44.242716 43.35327 
L 44.973156 42.640553 
L 46.434035 41.66948 
L 47.164475 41.219519 
L 47.894914 41.233966 
L 48.625354 41.046166 
L 49.355794 40.557143 
L 50.086233 40.491941 
L 50.816673 40.189026 
L 51.547113 40.267342 
L 52.277552 39.504526 
L 53.007992 39.29295 
L 53.738431 39.547052 
L 54.468871 39.513376 
L 55.199311 39.159707 
L 55.92975 38.962497 
L 56.66019 39.092649 
L 57.39063 39.061259 
L 58.121069 38.58204 
L 58.851509 38.688305 
L 59.581949 38.438861 
L 60.312388 38.663078 
L 61.773268 38.1566 
L 63.234147 38.161911 
L 63.964586 38.160234 
L 64.695026 37.774774 
L 65.425466 37.854324 
L 66.155905 37.758774 
L 66.886345 38.107042 
L 67.616785 37.659094 
L 68.347224 37.586265 
L 69.077664 37.893493 
L 69.808104 37.6598 
L 70.538543 37.618535 
L 71.268983 37.735491 
L 71.999423 37.352833 
L 72.729862 37.552538 
L 73.460302 37.274688 
L 74.190741 37.767211 
L 74.921181 37.101387 
L 76.38206 37.201216 
L 77.1125 37.483015 
L 77.84294 37.225575 
L 79.303819 37.185394 
L 80.034259 37.088444 
L 80.764698 37.126321 
L 82.225577 36.941265 
L 82.956017 37.012217 
L 83.686457 36.95502 
L 84.416896 37.073257 
L 85.877776 36.835193 
L 86.608215 36.939054 
L 88.799534 36.795504 
L 90.260414 36.885532 
L 93.182172 36.660253 
L 95.373491 36.699127 
L 96.83437 36.601224 
L 99.025689 36.639979 
L 100.486569 36.600829 
L 104.869206 36.685514 
L 107.060525 36.591272 
L 109.982284 36.62763 
L 110.712724 36.724252 
L 112.173603 36.61731 
L 113.634482 36.603758 
L 114.364922 36.423243 
L 118.01712 36.33059 
L 118.74756 36.444163 
L 119.477999 36.277658 
L 120.208439 36.516976 
L 121.669318 36.107732 
L 121.669318 36.107732 
" style="fill:none;stroke:#2ca02c;stroke-linecap:square;stroke-width:2;"/>
   </g>
   <g id="line2d_10">
    <path clip-path="url(#p656b4ff37a)" d="M 33.286121 85.877387 
L 34.016561 86.119654 
L 34.747001 85.852417 
L 35.47744 81.96617 
L 36.20788 79.220122 
L 36.93832 72.982471 
L 37.668759 68.289553 
L 38.399199 64.44909 
L 39.860078 59.630055 
L 40.590518 58.452231 
L 41.320958 56.585208 
L 42.051397 55.938082 
L 42.781837 54.496454 
L 43.512276 54.170429 
L 44.242716 53.314706 
L 45.703595 52.407516 
L 46.434035 51.586778 
L 48.625354 50.590221 
L 49.355794 50.043859 
L 50.086233 50.272643 
L 51.547113 49.740205 
L 53.007992 49.007802 
L 53.738431 48.692789 
L 54.468871 48.94833 
L 55.199311 49.051952 
L 57.39063 48.219761 
L 62.503707 47.55243 
L 63.234147 47.312321 
L 63.964586 47.337188 
L 64.695026 47.176066 
L 65.425466 47.214425 
L 66.155905 47.423815 
L 66.886345 47.231814 
L 67.616785 46.888491 
L 68.347224 46.902716 
L 69.077664 46.578486 
L 69.808104 46.794398 
L 70.538543 46.540026 
L 71.268983 46.536438 
L 71.999423 46.670523 
L 72.729862 46.429209 
L 73.460302 46.322358 
L 74.190741 46.604476 
L 74.921181 46.440759 
L 75.651621 46.118847 
L 76.38206 46.007 
L 77.1125 46.292858 
L 77.84294 46.115167 
L 79.303819 46.103052 
L 80.034259 45.969353 
L 85.147336 45.913294 
L 85.877776 45.657454 
L 89.529974 45.761976 
L 90.260414 45.521644 
L 90.990853 45.418681 
L 91.721293 45.54218 
L 95.373491 45.280198 
L 98.29525 45.331754 
L 101.947448 45.219829 
L 102.677887 45.293679 
L 104.138767 45.045377 
L 104.869206 45.145858 
L 106.330086 45.080405 
L 107.060525 45.118481 
L 109.982284 44.878951 
L 110.712724 44.797055 
L 111.443163 44.849791 
L 112.173603 44.713864 
L 112.904042 44.77101 
L 113.634482 44.684186 
L 117.28668 44.947404 
L 120.208439 44.815681 
L 120.938879 45.087582 
L 121.669318 44.685565 
L 121.669318 44.685565 
" style="fill:none;stroke:#d62728;stroke-linecap:square;stroke-width:2;"/>
   </g>
   <g id="line2d_11">
    <path clip-path="url(#p656b4ff37a)" d="M 33.286121 87.314573 
L 34.016561 87.195668 
L 34.747001 87.218708 
L 35.47744 84.788899 
L 36.20788 83.207092 
L 36.93832 79.147581 
L 37.668759 76.151592 
L 38.399199 72.612701 
L 39.129639 70.430413 
L 39.860078 69.279407 
L 41.320958 66.393122 
L 42.781837 64.399443 
L 43.512276 63.816144 
L 44.242716 62.631801 
L 44.973156 62.327518 
L 45.703595 61.076166 
L 46.434035 61.059948 
L 47.164475 60.874063 
L 47.894914 59.780562 
L 48.625354 59.623332 
L 49.355794 59.222942 
L 50.086233 59.272521 
L 50.816673 58.139983 
L 51.547113 58.833666 
L 52.277552 57.977732 
L 53.007992 57.545698 
L 53.738431 57.60348 
L 54.468871 57.954171 
L 55.92975 57.441504 
L 56.66019 57.39451 
L 57.39063 57.028677 
L 58.851509 56.969743 
L 59.581949 56.743568 
L 60.312388 56.396926 
L 61.042828 56.28747 
L 61.773268 56.500104 
L 63.964586 55.873708 
L 64.695026 56.119524 
L 65.425466 56.072954 
L 66.155905 55.873555 
L 66.886345 55.477096 
L 67.616785 55.412544 
L 68.347224 55.552133 
L 69.808104 55.284367 
L 70.538543 55.238138 
L 71.268983 55.335418 
L 71.999423 55.163999 
L 72.729862 55.317554 
L 73.460302 55.091075 
L 74.190741 55.12235 
L 76.38206 54.617398 
L 77.84294 54.553538 
L 78.573379 54.438445 
L 80.034259 54.432571 
L 80.764698 54.174992 
L 81.495138 54.288738 
L 82.225577 54.103683 
L 83.686457 54.292612 
L 84.416896 54.154405 
L 85.877776 54.113924 
L 86.608215 54.001161 
L 87.338655 54.058892 
L 92.451732 53.732696 
L 93.182172 53.768648 
L 93.912612 53.63707 
L 95.373491 53.632398 
L 96.83437 53.49399 
L 97.56481 53.616927 
L 100.486569 53.552455 
L 107.790965 53.517476 
L 111.443163 53.483085 
L 112.173603 53.547836 
L 113.634482 53.423805 
L 114.364922 53.551729 
L 115.095361 53.840735 
L 116.556241 53.719719 
L 117.28668 53.563487 
L 118.74756 53.685931 
L 119.477999 53.578315 
L 120.208439 53.637083 
L 120.938879 53.179254 
L 121.669318 53.150977 
L 121.669318 53.150977 
" style="fill:none;stroke:#9467bd;stroke-linecap:square;stroke-width:2;"/>
   </g>
   <g id="line2d_12">
    <path clip-path="url(#p656b4ff37a)" d="M 33.286121 88.563141 
L 34.747001 88.59445 
L 35.47744 87.450515 
L 36.20788 86.584259 
L 36.93832 83.725568 
L 38.399199 80.037142 
L 39.129639 78.725953 
L 39.860078 77.041151 
L 40.590518 76.185263 
L 41.320958 74.883465 
L 43.512276 72.50654 
L 44.242716 72.132461 
L 44.973156 71.384055 
L 45.703595 71.254354 
L 47.164475 69.662882 
L 48.625354 69.614626 
L 49.355794 68.870024 
L 50.086233 68.469299 
L 51.547113 67.257447 
L 52.277552 67.376709 
L 53.007992 66.6925 
L 53.738431 66.42683 
L 54.468871 67.019665 
L 55.199311 66.631215 
L 55.92975 66.45632 
L 56.66019 66.640357 
L 57.39063 66.342986 
L 58.121069 66.197682 
L 58.851509 65.893955 
L 59.581949 65.787881 
L 60.312388 65.932478 
L 61.773268 65.43882 
L 62.503707 65.130014 
L 64.695026 65.037817 
L 65.425466 65.084559 
L 66.155905 64.435442 
L 66.886345 64.406935 
L 67.616785 64.55268 
L 68.347224 64.497293 
L 69.077664 64.298556 
L 69.808104 64.27033 
L 70.538543 63.9827 
L 71.268983 64.113161 
L 71.999423 64.039019 
L 72.729862 64.302576 
L 73.460302 64.089473 
L 74.190741 63.401485 
L 74.921181 63.639437 
L 75.651621 63.588932 
L 76.38206 63.96712 
L 77.1125 63.401693 
L 77.84294 63.559007 
L 79.303819 63.230005 
L 80.764698 63.449796 
L 82.956017 63.222433 
L 83.686457 62.999836 
L 84.416896 63.03908 
L 85.877776 62.83363 
L 86.608215 63.087868 
L 87.338655 62.718971 
L 88.069095 62.894399 
L 89.529974 62.86869 
L 90.260414 62.643956 
L 92.451732 62.563702 
L 93.182172 62.439561 
L 94.643051 62.55601 
L 95.373491 62.350135 
L 96.103931 62.575437 
L 96.83437 62.322365 
L 98.29525 62.399232 
L 99.756129 62.264242 
L 109.251844 62.034494 
L 109.982284 61.933094 
L 110.712724 62.117547 
L 111.443163 62.016179 
L 112.173603 62.045047 
L 113.634482 61.895428 
L 115.095361 61.773591 
L 116.556241 61.969074 
L 118.01712 61.662801 
L 118.74756 61.889384 
L 120.208439 61.455743 
L 120.938879 62.003584 
L 120.938879 62.003584 
" style="fill:none;stroke:#8c564b;stroke-linecap:square;stroke-width:2;"/>
   </g>
   <g id="patch_3">
    <path d="M 28.1 92.078906 
L 28.1 10.778906 
" style="fill:none;stroke:#000000;stroke-linecap:square;stroke-linejoin:miter;stroke-width:0.5;"/>
   </g>
   <g id="patch_4">
    <path d="M 28.1 92.078906 
L 126.125 92.078906 
" style="fill:none;stroke:#000000;stroke-linecap:square;stroke-linejoin:miter;stroke-width:0.5;"/>
   </g>
   <g id="PathCollection_1">
    <defs>
     <path d="M 0 3 
C 0.795609 3 1.55874 2.683901 2.12132 2.12132 
C 2.683901 1.55874 3 0.795609 3 0 
C 3 -0.795609 2.683901 -1.55874 2.12132 -2.12132 
C 1.55874 -2.683901 0.795609 -3 0 -3 
C -0.795609 -3 -1.55874 -2.683901 -2.12132 -2.12132 
C -2.683901 -1.55874 -3 -0.795609 -3 0 
C -3 0.795609 -2.683901 1.55874 -2.12132 2.12132 
C -1.55874 2.683901 -0.795609 3 0 3 
z
" id="m386598aa9c" style="stroke:#000000;"/>
    </defs>
    <g clip-path="url(#p656b4ff37a)">
     <use style="fill:#1f77b4;stroke:#000000;" x="42.051397" xlink:href="#m386598aa9c" y="22.732257"/>
    </g>
   </g>
   <g id="PathCollection_2">
    <defs>
     <path d="M 0 3 
C 0.795609 3 1.55874 2.683901 2.12132 2.12132 
C 2.683901 1.55874 3 0.795609 3 0 
C 3 -0.795609 2.683901 -1.55874 2.12132 -2.12132 
C 1.55874 -2.683901 0.795609 -3 0 -3 
C -0.795609 -3 -1.55874 -2.683901 -2.12132 -2.12132 
C -2.683901 -1.55874 -3 -0.795609 -3 0 
C -3 0.795609 -2.683901 1.55874 -2.12132 2.12132 
C -1.55874 2.683901 -0.795609 3 0 3 
z
" id="m98691c0745" style="stroke:#000000;"/>
    </defs>
    <g clip-path="url(#p656b4ff37a)">
     <use style="fill:#ff7f0e;stroke:#000000;" x="49.355794" xlink:href="#m98691c0745" y="31.072827"/>
    </g>
   </g>
   <g id="PathCollection_3">
    <defs>
     <path d="M 0 3 
C 0.795609 3 1.55874 2.683901 2.12132 2.12132 
C 2.683901 1.55874 3 0.795609 3 0 
C 3 -0.795609 2.683901 -1.55874 2.12132 -2.12132 
C 1.55874 -2.683901 0.795609 -3 0 -3 
C -0.795609 -3 -1.55874 -2.683901 -2.12132 -2.12132 
C -2.683901 -1.55874 -3 -0.795609 -3 0 
C -3 0.795609 -2.683901 1.55874 -2.12132 2.12132 
C -1.55874 2.683901 -0.795609 3 0 3 
z
" id="mf1826ac03b" style="stroke:#000000;"/>
    </defs>
    <g clip-path="url(#p656b4ff37a)">
     <use style="fill:#2ca02c;stroke:#000000;" x="55.199311" xlink:href="#mf1826ac03b" y="39.159707"/>
    </g>
   </g>
   <g id="PathCollection_4">
    <defs>
     <path d="M 0 3 
C 0.795609 3 1.55874 2.683901 2.12132 2.12132 
C 2.683901 1.55874 3 0.795609 3 0 
C 3 -0.795609 2.683901 -1.55874 2.12132 -2.12132 
C 1.55874 -2.683901 0.795609 -3 0 -3 
C -0.795609 -3 -1.55874 -2.683901 -2.12132 -2.12132 
C -2.683901 -1.55874 -3 -0.795609 -3 0 
C -3 0.795609 -2.683901 1.55874 -2.12132 2.12132 
C -1.55874 2.683901 -0.795609 3 0 3 
z
" id="m50d0ec4ab8" style="stroke:#000000;"/>
    </defs>
    <g clip-path="url(#p656b4ff37a)">
     <use style="fill:#d62728;stroke:#000000;" x="63.234147" xlink:href="#m50d0ec4ab8" y="47.312321"/>
    </g>
   </g>
   <g id="PathCollection_5">
    <defs>
     <path d="M 0 3 
C 0.795609 3 1.55874 2.683901 2.12132 2.12132 
C 2.683901 1.55874 3 0.795609 3 0 
C 3 -0.795609 2.683901 -1.55874 2.12132 -2.12132 
C 1.55874 -2.683901 0.795609 -3 0 -3 
C -0.795609 -3 -1.55874 -2.683901 -2.12132 -2.12132 
C -2.683901 -1.55874 -3 -0.795609 -3 0 
C -3 0.795609 -2.683901 1.55874 -2.12132 2.12132 
C -1.55874 2.683901 -0.795609 3 0 3 
z
" id="mb0ee7e59c1" style="stroke:#000000;"/>
    </defs>
    <g clip-path="url(#p656b4ff37a)">
     <use style="fill:#9467bd;stroke:#000000;" x="67.616785" xlink:href="#mb0ee7e59c1" y="55.412544"/>
    </g>
   </g>
   <g id="PathCollection_6">
    <defs>
     <path d="M 0 3 
C 0.795609 3 1.55874 2.683901 2.12132 2.12132 
C 2.683901 1.55874 3 0.795609 3 0 
C 3 -0.795609 2.683901 -1.55874 2.12132 -2.12132 
C 1.55874 -2.683901 0.795609 -3 0 -3 
C -0.795609 -3 -1.55874 -2.683901 -2.12132 -2.12132 
C -2.683901 -1.55874 -3 -0.795609 -3 0 
C -3 0.795609 -2.683901 1.55874 -2.12132 2.12132 
C -1.55874 2.683901 -0.795609 3 0 3 
z
" id="m69cd863c77" style="stroke:#000000;"/>
    </defs>
    <g clip-path="url(#p656b4ff37a)">
     <use style="fill:#8c564b;stroke:#000000;" x="74.190741" xlink:href="#m69cd863c77" y="63.401485"/>
    </g>
   </g>
  </g>
 </g>
 <defs>
  <clipPath id="p656b4ff37a">
   <rect height="81.3" width="98.025" x="28.1" y="10.778906"/>
  </clipPath>
 </defs>
</svg>
